# xmcd
#
# Track frame offsets:
#	150
#	11493
#	28568
#	48061
#	75434
#	98463
#	116714
#	136836
#	164120
#	187879
#	209832
#	230254
#	252082
# Disc length: 3634 seconds
# Revision: 4
# Processed by: cddbd v1.5.2PL0 Copyright (c) Steve Scherf et al.
#
# Submitted via: libkcddb 0.31
#
DISCID=9c0e300d
DTITLE=Bruce Springsteen - We Shall Overcome: The Seeger Sessions
DYEAR=2006
DGENRE=Americana
TTITLE0=Old Dan Tucker
TTITLE1=Jesse James
TTITLE2=Mrs. McGrath
TTITLE3=Oh Mary Don't You Weep
TTITLE4=John Henry
TTITLE5=Erie Canal
TTITLE6=Jacob's Ladder
TTITLE7=My Oklahoma Home
TTITLE8=Eyes on the Prize
TTITLE9=Shenandoah
TTITLE10=Pay Me My Money Down
TTITLE11=We Shall Overcome
TTITLE12=Froggie Went a Courtin'
EXTD=
EXTT0=
EXTT1=
EXTT2=
EXTT3=
EXTT4=
EXTT5=
EXTT6=
EXTT7=
EXTT8=
EXTT9=
EXTT10=
EXTT11=
EXTT12=
PLAYORDER=
